<?xml version="1.0" encoding="UTF-8"?>
<svg width="17px" height="23px" viewBox="0 0 17 23" version="1.1" xmlns="http://www.w3.org/2000/svg" xmlns:xlink="http://www.w3.org/1999/xlink">
    <!-- Generator: Sketch 62 (91390) - https://sketch.com -->
    <title>alien1</title>
    <desc>Created with Sketch.</desc>
    <g id="Page-1" stroke="none" stroke-width="1" fill="none" fill-rule="evenodd">
        <g id="Artboard" transform="translate(-56.000000, -84.000000)">
            <g id="alien1" transform="translate(56.000000, 84.000000)">
                <polygon id="Fill-411" fill="#556D12" points="11 15 13 15 13 12 11 12"></polygon>
                <polygon id="Fill-412" fill="#556D12" points="7 15 9 15 9 12 7 12"></polygon>
                <polygon id="Fill-413" fill="#AED83A" points="9 23 11 23 11 18 9 18"></polygon>
                <polygon id="Fill-414" fill="#84CE1B" points="13 19 15 19 15 15 13 15"></polygon>
                <polyline id="Fill-415" fill="#84CE1B" points="7 16.49952 7 18 9 18 9 15 7 15 7 16.49952"></polyline>
                <polygon id="Fill-416" fill="#84CE1B" points="3 17 5 17 5 15 3 15"></polygon>
                <polygon id="Fill-417" fill="#84CE1B" points="2 19 4 19 4 17 2 17"></polygon>
                <polygon id="Fill-418" fill="#AED83A" points="2 21 4 21 4 19 2 19"></polygon>
                <polygon id="Fill-419" fill="#AED83A" points="13 21 15 21 15 19 13 19"></polygon>
                <polygon id="Fill-420" fill="#556D12" points="3 15 5 15 5 12 3 12"></polygon>
                <polygon id="Fill-421" fill="#65871A" points="2 11 4 11 4 9 2 9"></polygon>
                <polygon id="Fill-422" fill="#84CE1B" points="4 11 6 11 6 9 4 9"></polygon>
                <polygon id="Fill-423" fill="#65871A" points="13 11 15 11 15 9 13 9"></polygon>
                <polygon id="Fill-424" fill="#84CE1B" points="10 11 12 11 12 9 10 9"></polygon>
                <polyline id="Fill-425" fill="#84CE1B" points="13.444002 11 1 11 1 13 15 13 15 11 13.444002 11"></polyline>
                <polyline id="Fill-426" fill="#BCBCBC" points="8.50057596 2 4 2 4 11 13 11 13 2 8.50057596 2"></polyline>
                <polyline id="Fill-427" fill="#2A9159" points="8.50053339 9 6 9 6 11 11 11 11 9 8.50053339 9"></polyline>
                <polyline id="Fill-428" fill="#0474B2" points="8.50048 6 7 6 7 8 10 8 10 6 8.50048 6"></polyline>
                <polyline id="Fill-429" fill="#625087" points="9.33368893 7.50048 9.33368893 6 6 6 6 9 11 9 11 7.50048 9.33368893 7.50048"></polyline>
                <polyline id="Fill-430" fill="#D3D3D3" points="8.50053339 0 6 0 6 2 11 2 11 0 8.50053339 0"></polyline>
                <polyline id="Fill-431" fill="#A0A0A0" points="8.50048 4 7 4 7 6 10 6 10 4 8.50048 4"></polyline>
                <polyline id="Fill-432" fill="#A0A0A0" points="5.0006398 9 4 9 4 11 6 11 6 9 5.0006398 9"></polyline>
                <polyline id="Fill-433" fill="#A0A0A0" points="12.0006398 9 11 9 11 11 13 11 13 9 12.0006398 9"></polyline>
                <polygon id="Fill-434" fill="#BCBCBC" points="10 9 12 9 12 6 10 6"></polygon>
                <polygon id="Fill-435" fill="#F7F7F7" points="9 8 11 8 11 6 9 6"></polygon>
                <polygon id="Fill-436" fill="#46386B" points="9 9 11 9 11 7 9 7"></polygon>
                <polygon id="Fill-437" fill="#F7F7F7" points="9 6 11 6 11 4 9 4"></polygon>
                <polygon id="Fill-438" fill="#65871A" points="0 13 2 13 2 11 0 11"></polygon>
                <polygon id="Fill-439" fill="#65871A" points="15 13 17 13 17 11 15 11"></polygon>
                <polyline id="Fill-440" fill="#A7EA3D" points="10.49952 11 9 11 9 13 12 13 12 11 10.49952 11"></polyline>
            </g>
        </g>
    </g>
</svg>